<?xml version="1.0" encoding="utf-8"?>
<!-- Generator: Adobe Illustrator 19.2.1, SVG Export Plug-In . SVG Version: 6.00 Build 0)  -->
<svg version="1.1" id="layer" xmlns="http://www.w3.org/2000/svg" xmlns:xlink="http://www.w3.org/1999/xlink" x="0px" y="0px"
	 viewBox="0 0 652 652" style="enable-background:new 0 0 652 652;" xml:space="preserve">
<style type="text/css">
	.st0{fill-rule:evenodd;clip-rule:evenodd;fill:#CA2027;}
</style>
<path class="st0" d="M-26.8,562.2c0,0,51.2-41,52.9-82L103,150.8L152.5,371l47.8-206.5c0,0,12.4-75.5,47.8-40.9
	c0,0-22.1,13.8-36.5,63.3L142.2,499L91,280.5l-59.7,239C31.3,519.5,0.5,599.8-26.8,562.2"/>
<path class="st0" d="M596.4,162.7c0,12.3-9.9,22.2-22.3,22.2c-12.1,0-22.1-9.9-22.1-22.2c0-12.2,10-22.2,22.1-22.2
	C586.4,140.5,596.4,150.5,596.4,162.7"/>
<path class="st0" d="M514.4,120.1c0,0,8.6-13.6,6.8,8.6c0,0-8.6,110.9-64.8,189.5C456.4,318.1,458.1,198.6,514.4,120.1 M364.2,331.8
	c0,0-10.2-116.1,49.6-191.2c0,0,13.6-5.2,1.7,46.1C415.4,186.7,377.9,325,364.2,331.8 M258.3,365.9c0,0-11.3,97.9-43.5,84.3
	c0,0-6.3-57.3,35.4-99.9C250.2,350.2,258.5,350.2,258.3,365.9 M579.3,325c-22.2,27.3-29,18.8-29,18.8
	c-20.5-13.7,15.3-88.8,15.3-88.8c13.7-29-1.7-32.4-1.7-32.4c-37.5-8.6-59.7,110.9-59.7,110.9c-32.4,64.9-44.4,10.3-44.4,10.3
	c49.5-73.5,61.4-136.6,61.4-136.6C560.5,77.4,523,79.1,523,79.1c-49.6,1.7-80.3,119.5-80.3,119.5c-30.7,92.1-13.7,169-13.7,169
	c-44.4,63.2-61.4-3.4-61.4-3.4c63.1-116.1,68.3-218.5,68.3-218.5c-1.7-56.4-32.5-42.7-32.5-42.7c-105.9,109.3-68.4,293.6-68.4,293.6
	c-20.4,41-40.9,37.6-40.9,37.6c-12,0,5.1-59.8,5.1-59.8c10.2-37.5-12-41-12-41c-38.2-16.5-64.8,10.3-64.8,10.3
	c-47.1,49.1-52.1,87.8-44.1,110.5c7.2,20.8,23.9,24.9,23.9,24.9c20.9,4.2,46.9-22.9,46.9-22.9c46,44.4,95.7-48.9,95.7-48.9
	c41.7,44.8,91.1-24.5,91.1-24.5c40.9,30.7,74.4-31.8,74.4-31.8s15.7,19.7,41.7,10.4C577.9,352.3,595.1,329.8,579.3,325"/>
<path class="st0" d="M626.7,100.4h5c2.7,0,4.2,0.1,4.8,0.2c1,0.2,1.8,0.6,2.4,1.3c0.6,0.6,0.9,1.5,0.9,2.6c0,1-0.2,1.8-0.6,2.4
	c-0.5,0.7-1.1,1.2-1.8,1.4c-0.8,0.2-2.8,0.4-5.8,0.4h-4.8V100.4z M626.7,127.3v-13.5h1.3c1.5,0,2.5,0.2,3.2,0.3
	c0.8,0.4,1.4,0.8,2,1.4c0.6,0.7,1.7,2.2,3.4,4.7l4.6,7.1h7.9l-4-6.3c-1.5-2.5-2.8-4.2-3.6-5.4c-0.9-0.9-2-1.8-3.5-2.7
	c2.8-0.3,4.9-1.3,6.4-3c1.3-1.6,2-3.5,2-6c0-2-0.4-3.6-1.3-5.1c-0.9-1.4-2.2-2.5-3.8-3.1c-1.6-0.6-4.1-0.9-7.5-0.9h-13.7v32.4H626.7
	z"/>
<path class="st0" d="M614.5,88.1c5.1-4.9,11.2-7.3,18.3-7.3c4.9,0,9.4,1.3,13.4,3.9c4,2.4,7.1,6,9,10.5c2.2,4.6,3.2,9.9,3.2,16
	c0,9.8-2.4,17.2-7.3,22.4c-4.9,5.3-11,7.9-18.6,7.9c-7.4,0-13.5-2.7-18.3-7.9c-5-5.3-7.3-12.4-7.3-21.4
	C607,101,609.5,92.9,614.5,88.1 M601,131c2.8,6,7.1,10.6,12.7,14c5.6,3.5,12,5.1,19,5.1c6.6,0,12.7-1.5,18.3-4.6
	c5.7-3.1,10-7.6,13.1-13.6c3.1-6.1,4.6-12.9,4.6-20.5c0-7.6-1.4-14.2-4.4-20.2c-2.9-5.9-7.2-10.5-12.7-13.9c-5.6-3.2-11.9-5-18.8-5
	c-10.6,0-19.3,3.5-26,10.6c-6.7,7-10,16.8-10,29.3C596.8,118.8,598.2,125,601,131"/>
</svg>
